<?xml version="1.0" encoding="utf-8"?>
<!-- Generator: Adobe Illustrator 19.2.0, SVG Export Plug-In . SVG Version: 6.00 Build 0)  -->
<svg version="1.1" id="Layer_1" xmlns="http://www.w3.org/2000/svg" xmlns:xlink="http://www.w3.org/1999/xlink" x="0px" y="0px"
	 viewBox="0 0 115.1 87.3" style="enable-background:new 0 0 115.1 87.3;" xml:space="preserve">
<g>
	<path d="M89,22.1c-2.7,0-5.2,0.4-7.5,1.1c-2.9-12.3-14-21.3-26.8-21.3c-14.3,0-26.1,10.9-27.4,24.9c-1.2-0.2-2.4-0.3-3.5-0.3
		c-11.3,0-21.3,10.7-21.3,23c0,12.2,9.9,23,21.3,23h17c1.1,0,2-0.9,2-2s-0.9-2-2-2h-17c-9,0-17.3-9-17.3-19c0-9.9,8.2-19,17.3-19
		c1.6,0,3.2,0.2,4.8,0.7c0.6,0.2,1.3,0.1,1.8-0.3s0.8-1,0.8-1.6C31.3,16.4,41.8,5.9,54.7,5.9c11.7,0,21.7,8.7,23.3,20.4
		c0.1,0.6,0.5,1.2,1,1.5c0.6,0.3,1.2,0.3,1.8,0.1c2.4-1.1,5.2-1.7,8.2-1.7c10.4,0,19.6,9.8,19.6,21c0,11.3-9.1,21.3-19.6,21.3H68.8
		c-1.1,0-2,0.9-2,2s0.9,2,2,2H89c12.6,0,23.6-11.8,23.6-25.3C112.5,33.8,101.5,22.1,89,22.1z"/>
	<path d="M71.1,59.8c0.4,0.4,0.9,0.6,1.4,0.6c0.5,0,1-0.2,1.4-0.6c0.8-0.8,0.8-2,0.1-2.8L57.2,39.5c-0.8-0.8-2-0.8-2.8-0.1
		L36.7,56.2c-0.8,0.8-0.8,2-0.1,2.8c0.8,0.8,2,0.8,2.8,0.1l13.3-12.7v37c0,1.1,0.9,2,2,2s2-0.9,2-2V44.9L71.1,59.8z"/>
</g>
</svg>
