<?xml version="1.0" encoding="utf-8"?>
<!-- Generator: Adobe Illustrator 19.2.0, SVG Export Plug-In . SVG Version: 6.00 Build 0)  -->
<svg version="1.1" id="Layer_1" xmlns="http://www.w3.org/2000/svg" xmlns:xlink="http://www.w3.org/1999/xlink" x="0px" y="0px"
	 viewBox="0 0 14.2 19.2" style="enable-background:new 0 0 14.2 19.2;" xml:space="preserve">
<path d="M14.1,6.9L7.4,0.3c-0.2-0.2-0.5-0.2-0.7,0L0.2,6.9c-0.2,0.2-0.2,0.5,0,0.7s0.5,0.2,0.7,0l5.7-5.7v11.2c0,0.5-0.1,5-5,5
	c-0.3,0-0.5,0.2-0.5,0.5s0.2,0.5,0.5,0.5c3.2,0,4.8-1.7,5.5-3.5c0.7,1.8,2.3,3.5,5.5,3.5c0.3,0,0.5-0.2,0.5-0.5s-0.2-0.5-0.5-0.5
	c-4.9,0-5-4.5-5-5V1.9l5.7,5.7c0.1,0.1,0.2,0.1,0.4,0.1s0.3,0,0.4-0.1C14.3,7.4,14.3,7,14.1,6.9z"/>
</svg>
