<?xml version="1.0" encoding="utf-8"?>
<!-- Generator: Adobe Illustrator 19.2.0, SVG Export Plug-In . SVG Version: 6.00 Build 0)  -->
<svg version="1.1" id="Layer_1" xmlns="http://www.w3.org/2000/svg" xmlns:xlink="http://www.w3.org/1999/xlink" x="0px" y="0px"
	 viewBox="0 0 23.4 13.6" style="enable-background:new 0 0 23.4 13.6;" xml:space="preserve">
<g>
	<path d="M11.7,13.6c-6.3,0-11.3-6.3-11.5-6.5c-0.1-0.2-0.1-0.4,0-0.6C0.4,6.2,5.4,0,11.7,0S23,6.3,23.2,6.5c0.1,0.2,0.1,0.4,0,0.6
		C23,7.3,18,13.6,11.7,13.6z M1.2,6.7c1.1,1.2,5.4,5.9,10.5,5.9S21.1,8,22.2,6.7c-1.1-1.2-5.4-5.9-10.5-5.9S2.3,5.5,1.2,6.7z"/>
	<circle cx="11.7" cy="6.7" r="3.2"/>
</g>
</svg>
