<?xml version="1.0" encoding="utf-8"?>
<!-- Generator: Adobe Illustrator 19.2.0, SVG Export Plug-In . SVG Version: 6.00 Build 0)  -->
<svg version="1.1" id="Layer_1" xmlns="http://www.w3.org/2000/svg" xmlns:xlink="http://www.w3.org/1999/xlink" x="0px" y="0px"
	 viewBox="0 0 20.4 18.5" style="enable-background:new 0 0 20.4 18.5;" xml:space="preserve">
<g>
	<path d="M3.7,9.2c0-0.7-0.4-1.2-1-1.4V4.7c0.6-0.2,1-0.7,1-1.4s-0.4-1.2-1-1.4V0.7c0-0.3-0.2-0.5-0.5-0.5S1.7,0.5,1.7,0.7v1.2
		C1.2,2.1,0.8,2.7,0.8,3.3s0.4,1.1,0.9,1.3v3.3C1.2,8.1,0.8,8.6,0.8,9.2s0.4,1.1,0.9,1.3v3.3c-0.5,0.2-0.9,0.7-0.9,1.3
		s0.4,1.1,0.9,1.3v1.2c0,0.3,0.2,0.5,0.5,0.5s0.5-0.2,0.5-0.5v-1.2c0.6-0.2,1-0.7,1-1.4c0-0.7-0.4-1.2-1-1.4v-3.2
		C3.3,10.4,3.7,9.9,3.7,9.2z"/>
	<path d="M18.9,4.3h-12l-1.4-1l1.4-1h12c0.4,0,0.7,0.3,0.7,0.7v0.6C19.6,4,19.3,4.3,18.9,4.3z"/>
	<path d="M18.9,10.2h-12l-1.4-1l1.4-1h12c0.4,0,0.7,0.3,0.7,0.7v0.6C19.6,9.9,19.3,10.2,18.9,10.2z"/>
	<path d="M18.9,16.2h-12l-1.4-1l1.4-1h12c0.4,0,0.7,0.3,0.7,0.7v0.6C19.6,15.9,19.3,16.2,18.9,16.2z"/>
</g>
</svg>
