<?xml version="1.0" encoding="utf-8"?>
<!-- Generator: Adobe Illustrator 19.2.0, SVG Export Plug-In . SVG Version: 6.00 Build 0)  -->
<svg version="1.1" id="Layer_1" xmlns="http://www.w3.org/2000/svg" xmlns:xlink="http://www.w3.org/1999/xlink" x="0px" y="0px"
	 viewBox="0 0 68.8 57.4" style="enable-background:new 0 0 68.8 57.4;" xml:space="preserve">
<g>
	<path d="M67.2,18.8c-3.4-3.4-7.2-6.3-11.3-8.5l6-6c0.8-0.8,0.8-2,0-2.8c-0.8-0.8-2-0.8-2.8,0l-7,7c-5.6-2.4-11.7-3.6-18-3.6
		c-12.2,0-23.7,4.7-32.5,13.3c-0.8,0.8-0.8,2,0,2.8c0.8,0.8,2,0.8,2.8,0c8-7.8,18.5-12.2,29.7-12.2c5.2,0,10.2,0.9,14.9,2.7
		l-5.6,5.6c-3-0.8-6.1-1.2-9.3-1.2c-9.3,0-18,3.6-24.7,10.1c-0.8,0.8-0.8,2,0,2.8s2,0.8,2.8,0c5.9-5.8,13.7-8.9,21.9-8.9
		c2,0,4,0.2,6,0.6l-6.4,6.4c-6.1,0.1-12,2.5-16.5,6.8c-0.8,0.8-0.8,2,0,2.8c0.8,0.8,2,0.8,2.8,0.1c2.6-2.5,5.7-4.2,9-5.1L9.7,50.8
		c-0.8,0.8-0.8,2,0,2.8c0.4,0.4,0.9,0.6,1.4,0.6s1-0.2,1.4-0.6l11.1-11.1c0.1,0.3,0.2,0.6,0.5,0.8c0.8,0.8,2,0.8,2.8,0.1
		c2-1.9,4.5-2.9,7.2-2.9c2.9,0,5.7,1.2,7.7,3.4c0.4,0.4,0.9,0.6,1.5,0.6c0.5,0,1-0.2,1.4-0.5c0.8-0.8,0.8-2,0.1-2.8
		c-2.8-3-6.6-4.6-10.6-4.6c-2,0-4,0.4-5.8,1.2l7-7c5.1,0.3,9.8,2.4,13.5,6.2c0.4,0.4,0.9,0.6,1.4,0.6c0.5,0,1-0.2,1.4-0.6
		c0.8-0.8,0.8-2,0.1-2.8c-3.5-3.6-7.9-6-12.7-7l5.7-5.7c4.5,1.6,8.6,4.2,12,7.7c0.4,0.4,0.9,0.6,1.4,0.6c0.5,0,1-0.2,1.4-0.6
		c0.8-0.8,0.8-2,0-2.8c-3.4-3.5-7.4-6.2-11.7-8l5.3-5.3c4.2,2.1,8,4.9,11.4,8.3c0.4,0.4,0.9,0.6,1.4,0.6c0.5,0,1-0.2,1.4-0.6
		C68,20.8,68,19.5,67.2,18.8z"/>
	<circle cx="34.1" cy="51.2" r="5.2"/>
</g>
</svg>
