<?xml version="1.0" encoding="utf-8"?>
<!-- Generator: Adobe Illustrator 19.2.0, SVG Export Plug-In . SVG Version: 6.00 Build 0)  -->
<svg version="1.1" id="Layer_1" xmlns="http://www.w3.org/2000/svg" xmlns:xlink="http://www.w3.org/1999/xlink" x="0px" y="0px"
	 viewBox="0 0 21.8 22" style="enable-background:new 0 0 21.8 22;" xml:space="preserve">
<path d="M21.8,17.9c0-2.2-1.8-4.1-4.1-4.1c-1.2,0-2.3,0.5-3.1,1.4l0.2-1.6c0-0.3-0.2-0.5-0.4-0.6c-0.3,0-0.5,0.2-0.6,0.4l-0.3,2.9
	c0,0.3,0.2,0.5,0.4,0.6l2.9,0.3c0,0,0,0,0.1,0c0.3,0,0.5-0.2,0.5-0.4c0-0.3-0.2-0.5-0.4-0.6L15.3,16c0.6-0.8,1.5-1.3,2.5-1.3
	c1.7,0,3.1,1.4,3.1,3.1S19.5,21,17.8,21H1V1h10c0,0,0,4.5,0,4.6c0,0.2,0.3,0.3,0.5,0.3H15V11c0,0.3,0.2,0.5,0.5,0.5S16,11.3,16,11
	V5.4c0,0,0-0.2-0.1-0.3L11.7,0H0.5C0.2,0,0,0.2,0,0.5v21C0,21.8,0.2,22,0.5,22h17.3C20,22,21.8,20.2,21.8,17.9z M12,1.9l2.4,3H12
	V1.9z"/>
</svg>
