<?xml version="1.0" encoding="utf-8"?>
<!-- Generator: Adobe Illustrator 19.2.0, SVG Export Plug-In . SVG Version: 6.00 Build 0)  -->
<svg version="1.1" id="Layer_1" xmlns="http://www.w3.org/2000/svg" xmlns:xlink="http://www.w3.org/1999/xlink" x="0px" y="0px"
	 viewBox="0 0 22.1 19.2" style="enable-background:new 0 0 22.1 19.2;" xml:space="preserve">
<g>
	<path d="M3.3,10.4l1.7-2c0.2-0.2,0.2-0.5,0-0.7c-0.2-0.2-0.5-0.2-0.7,0l-0.9,1C3.6,6,5.2,3.7,8,2.3c2-1,4.2-1.1,6.2-0.4
		c2,0.7,3.7,2.1,4.6,4.1L19,6.2c0.3,0.5,0.4,0.8,0.5,1.6c0,0.3,0.3,0.5,0.6,0.4c0.3,0,0.5-0.3,0.4-0.6c-0.1-0.9-0.3-1.4-0.6-1.9
		l-0.1-0.3c-2.2-4.5-7.6-6.3-12.2-4.1c-3.1,1.5-5,4.2-5.2,7.3l-1-0.9c-0.2-0.2-0.5-0.2-0.7,0c-0.2,0.2-0.2,0.5,0,0.7l1.9,1.8
		c0.1,0.1,0.2,0.2,0.3,0.2c0,0,0,0,0,0C3.1,10.6,3.2,10.5,3.3,10.4z"/>
	<path d="M21.5,13.7l-0.9-2.4c-0.1-0.3-0.4-0.4-0.6-0.3L17.5,12c-0.3,0.1-0.4,0.4-0.3,0.6c0.1,0.3,0.4,0.4,0.6,0.3l1.3-0.5
		c-0.7,1.6-2,3.5-4.1,4.5c-2,1-4.2,1.1-6.2,0.4c-2-0.7-3.7-2.2-4.7-4.3c-0.1-0.2-0.4-0.3-0.7-0.2c-0.2,0.1-0.4,0.4-0.2,0.7
		c1.1,2.3,3,4,5.3,4.8c1,0.3,2,0.5,3,0.5c1.4,0,2.7-0.3,4-0.9c2.3-1.1,3.8-3.2,4.6-5l0.5,1.2c0.1,0.2,0.3,0.3,0.5,0.3
		c0.1,0,0.1,0,0.2,0C21.4,14.2,21.6,13.9,21.5,13.7z"/>
</g>
</svg>
